# 3ds Max Wavefront OBJ Exporter v0.97b - (c)2007 guruware
# File Created: 23.10.2015 17:25:14

mtllib gem.mtl

#
# object Shape002
#

v  -3.245785 -7.721672 32.937992
v  0.000000 -0.000002 46.409389
v  -10.906711 0.000000 31.438383
v  -10.377918 -5.102233 22.680426
v  -4.744452 -9.799998 25.652161
v  -15.914372 0.000002 18.253437
v  -15.936765 0.000002 18.173033
v  -11.285047 -7.169586 13.161672
v  -8.278691 -9.799998 15.990097
v  0.000000 -9.799998 29.309484
v  -4.452408 -6.568586 5.862021
v  0.000000 -9.799997 8.753143
v  -5.390808 -9.799998 10.637530
v  -11.618148 0.000005 4.891852
v  -1.900000 0.000005 0.800000
v  -0.607626 -0.896421 0.800000
v  3.245785 -7.721672 32.937992
v  10.906713 0.000000 31.438383
v  4.744452 -9.799998 25.652161
v  10.377919 -5.102233 22.680426
v  15.914370 0.000002 18.253437
v  11.285045 -7.169586 13.161672
v  15.936760 0.000002 18.173033
v  8.278691 -9.799998 15.990097
v  4.452408 -6.568586 5.862021
v  5.390808 -9.799998 10.637530
v  11.618148 0.000005 4.891852
v  0.607628 -0.896421 0.800000
v  1.900000 0.000005 0.800000
v  -3.245785 7.721672 32.937992
v  -10.377918 5.102237 22.680428
v  -4.744452 9.800002 25.652166
v  -11.285047 7.169591 13.161674
v  -8.278691 9.800005 15.990100
v  0.000000 9.800000 29.309484
v  -4.452408 6.568595 5.862021
v  -5.390808 9.800006 10.637537
v  0.000000 9.800005 8.753150
v  -0.607628 0.896432 0.800000
v  3.245785 7.721672 32.937992
v  10.377919 5.102237 22.680428
v  4.744452 9.800002 25.652166
v  11.285045 7.169591 13.161674
v  8.278691 9.800005 15.990100
v  4.452408 6.568595 5.862021
v  5.390808 9.800006 10.637537
v  0.607628 0.896432 0.800000
# 47 vertices

vn -0.666024 -0.566552 0.485213
vn -0.701584 -0.633641 0.326004
vn -0.763575 -0.576931 0.290007
vn -0.747644 -0.630616 0.208212
vn -0.747645 -0.630615 0.208211
vn -0.694978 -0.672593 0.254213
vn -0.240247 -0.919320 0.311659
vn -0.201264 -0.792452 -0.575772
vn -0.484498 -0.834823 -0.261402
vn -0.525105 -0.653382 -0.545304
vn -0.338660 -0.488244 -0.804318
vn 0.666024 -0.566552 0.485213
vn 0.701584 -0.633641 0.326004
vn 0.763575 -0.576931 0.290006
vn 0.747645 -0.630615 0.208211
vn 0.747645 -0.630614 0.208211
vn 0.694978 -0.672593 0.254213
vn 0.000000 -0.867617 0.497233
vn 0.240247 -0.919320 0.311659
vn 0.201264 -0.792452 -0.575772
vn 0.484498 -0.834823 -0.261402
vn 0.525105 -0.653382 -0.545304
vn 0.338660 -0.488244 -0.804318
vn 0.000637 -0.666156 -0.745813
vn -0.000821 -0.666149 -0.745819
vn 0.000000 -1.000000 0.000000
vn 0.000000 -1.000000 -0.000000
vn -0.882705 -0.372085 -0.287028
vn 0.882705 -0.372085 -0.287027
vn -0.666024 0.566552 0.485213
vn -0.701584 0.633641 0.326005
vn -0.763575 0.576931 0.290007
vn -0.747644 0.630615 0.208212
vn -0.747645 0.630614 0.208211
vn -0.694978 0.672593 0.254213
vn -0.240247 0.919320 0.311660
vn -0.201264 0.792452 -0.575771
vn -0.484498 0.834824 -0.261402
vn -0.525105 0.653382 -0.545304
vn -0.338660 0.488244 -0.804318
vn 0.666023 0.566552 0.485213
vn 0.701584 0.633641 0.326005
vn 0.763575 0.576931 0.290007
vn 0.747645 0.630615 0.208211
vn 0.747645 0.630614 0.208211
vn 0.694978 0.672593 0.254213
vn 0.000000 0.867617 0.497234
vn 0.240247 0.919320 0.311660
vn 0.201264 0.792452 -0.575771
vn 0.484498 0.834823 -0.261402
vn 0.525105 0.653383 -0.545304
vn 0.338660 0.488244 -0.804318
vn 0.000638 0.666156 -0.745812
vn -0.000821 0.666149 -0.745818
vn 0.000000 1.000000 -0.000000
vn 0.000000 1.000000 0.000000
vn -0.882705 0.372085 -0.287027
vn 0.882705 0.372085 -0.287027
vn 0.000000 0.000000 -1.000000
# 59 vertex normals

g Shape002
usemtl wire_196088225
s off
f 1//1 2//1 3//1 
f 4//2 5//2 1//2 3//2 
f 4//3 3//3 6//3 
f 6//4 7//4 8//4 4//4 
f 9//5 4//5 8//5 
f 9//6 5//6 4//6 
f 1//7 5//7 10//7 
f 11//8 12//8 13//8 
f 8//9 13//9 9//9 
f 13//10 8//10 14//10 11//10 
f 11//11 14//11 15//11 16//11 
f 17//12 18//12 2//12 
f 17//13 19//13 20//13 18//13 
f 20//14 21//14 18//14 
f 22//15 23//15 21//15 20//15 
f 24//16 22//16 20//16 
f 24//17 20//17 19//17 
f 2//18 1//18 10//18 17//18 
f 17//19 10//19 19//19 
f 25//20 26//20 12//20 
f 22//21 24//21 26//21 
f 27//22 22//22 26//22 25//22 
f 25//23 28//23 29//23 27//23 
f 11//24 16//24 28//24 12//24 
f 25//25 12//25 28//25 
f 19//26 10//26 5//26 24//26 
f 13//27 12//27 26//27 24//27 
f 9//26 13//26 24//26 5//26 
f 14//28 8//28 7//28 
f 23//29 22//29 27//29 
f 30//30 3//30 2//30 
f 31//31 3//31 30//31 32//31 
f 31//32 6//32 3//32 
f 33//33 7//33 6//33 31//33 
f 34//34 33//34 31//34 
f 34//35 31//35 32//35 
f 30//36 35//36 32//36 
f 36//37 37//37 38//37 
f 33//38 34//38 37//38 
f 37//39 36//39 14//39 33//39 
f 15//40 14//40 36//40 39//40 
f 40//41 2//41 18//41 
f 40//42 18//42 41//42 42//42 
f 41//43 18//43 21//43 
f 21//44 23//44 43//44 41//44 
f 44//45 41//45 43//45 
f 44//46 42//46 41//46 
f 2//47 40//47 35//47 30//47 
f 40//48 42//48 35//48 
f 45//49 38//49 46//49 
f 43//50 46//50 44//50 
f 27//51 45//51 46//51 43//51 
f 29//52 47//52 45//52 27//52 
f 47//53 39//53 36//53 38//53 
f 45//54 47//54 38//54 
f 46//55 38//55 37//55 44//55 
f 44//56 37//56 34//56 32//56 
f 42//56 44//56 32//56 35//56 
f 14//57 7//57 33//57 
f 23//58 27//58 43//58 
f 39//59 47//59 29//59 28//59 
f 39//59 28//59 16//59 15//59 
# 28 polygons - 34 triangles

