mtllib ./Palette.mtl
g Palette
v -3 5 -3.089119
v 3 5 -3.089119
v -3 6.5 -3.089119
v 3 6.5 -3.089119
v -3 5 3.08912
v 3 5 3.08912
v -3 6.5 3.08912
v 3 6.5 3.08912
v -2.25 6.5 2.83912
v 2.25 6.5 2.83912
v 2.25 6.5 -2.839119
v -2.25 6.5 -2.839119
v -3 6.5 -2.839119
v -3 6.5 2.83912
v -2.9 6.5 -2.839119
v -2.9 6.5 2.83912
v -2.35 6.5 2.83912
v -2.35 6.5 -2.839119
v -2.15 6.5 2.83912
v -2.15 6.5 -2.839119
v 2.15 6.5 2.83912
v 2.15 6.5 -2.839119
v -2.15 6.5 1.93899
v 2.15 6.5 1.93899
v 2.15 6.5 -1.93899
v -2.15 6.5 -1.93899
v -2.35 6.5 -1.817742
v -2.9 6.5 -1.817742
v -2.9 6.5 1.817743
v -2.35 6.5 1.817743
v -2.15 6.5 1.817743
v 2.15 6.5 1.817743
v 2.15 6.5 -1.817742
v -2.15 6.5 -1.817742
v -2.9 6.5 1.93899
v -2.35 6.5 1.93899
v -2.35 6.5 -1.93899
v -2.9 6.5 -1.93899
v -0.821771 6.5 0.694776
v 0.821771 6.5 0.694776
v 0.821771 6.5 -0.694776
v -0.821771 6.5 -0.694776
v 2.9 6.5 -1.817742
v 2.35 6.5 -1.817742
v 2.35 6.5 1.817743
v 2.9 6.5 1.817743
v 2.35 6.5 -2.839119
v 2.35 6.5 2.83912
v 3 6.5 2.83912
v 3 6.5 -2.839119
v 2.9 6.5 -2.839119
v 2.9 6.5 2.83912
v 2.9 6.5 -1.93899
v 2.35 6.5 -1.93899
v 2.35 6.5 1.93899
v 2.9 6.5 1.93899
v -2.9 6 -3.089119
v 2.9 6 -3.089119
v -2.9 7 -2.839119
v 2.9 7 -2.839119
v -2.9 6.1 -3.339119
v 2.9 6.1 -3.339119
v -2.9 6.89 -3.339119
v 2.9 6.89 -3.339119
v 2.9 7 -3.254415
v -2.9 7 -3.254415
v -2.9 6 -3.254415
v 2.9 6 -3.254415
v -3 6.9 -2.839119
v 3 6.1 -3.254415
v 3 6.1 -3.089119
v 3 6.9 -2.839119
v 3 6.9 -3.254415
v -3 6.25 -2.839119
v -2.9 6 3.08912
v 2.9 6 3.08912
v -2.9 7 2.83912
v 2.9 7 2.83912
v -2.9 6.1 3.33912
v 2.9 6.1 3.33912
v -2.9 6.89 3.33912
v 2.9 6.89 3.33912
v 2.9 7 3.254416
v -2.9 7 3.254416
v -2.9 6 3.254416
v 2.9 6 3.254416
v -3 6.9 2.83912
v 3 6.1 3.254416
v 3 6.1 3.08912
v 3 6.9 2.83912
v 3 6.9 3.254416
v -3 6.25 2.83912
v -3 6.1 -3.254415
v -3 6.9 -3.254415
v -3 6.1 -3.089119
v -3 6.9 3.254416
v -3 6.1 3.254416
v -3 6.1 3.08912
v 2.35 6.5 -1.938994
v 2.9 6.5 -1.938994
v 2.9 6.5 -2.839124
v 2.35 6.5 -2.839124
v -2.9 6.5 -1.938994
v -2.35 6.5 -1.938994
v -2.35 6.5 -2.839124
v -2.9 6.5 -2.839124
v 3 6.5 3.08912
v 3 6.5 -3.089119
v 3 5 -3.089119
v 3 5 3.08912
v -3 6.5 -3.089119
v -3 6.5 3.08912
v -3 5 3.08912
v -3 5 -3.089119
v -3 5 -3.089119
v -3 5 3.08912
v 3 5 3.08912
v 3 5 -3.089119
v -2.15 6.5 2.83912
v 2.15 6.5 2.83912
v 2.15 6.5 -2.839119
v -2.15 6.5 -2.839119
v -2.15 6.5 1.93899
v 2.15 6.5 1.93899
v 2.15 6.5 -1.93899
v -2.15 6.5 -1.93899
v -2.9 6.5 1.817743
v -2.35 6.5 1.817743
v -2.35 6.5 -1.817742
v -2.9 6.5 -1.817742
v -2.15 6.5 1.817743
v -0.821771 6.5 0.694776
v 0.821771 6.5 0.694776
v 2.15 6.5 1.817743
v 2.15 6.5 -1.817742
v 0.821771 6.5 -0.694776
v -0.821771 6.5 -0.694776
v -2.15 6.5 -1.817742
v 0.821771 6.5 0.694776
v 0.821771 6.5 -0.694776
v 2.15 6.5 -1.817742
v 2.15 6.5 1.817743
v -2.15 6.5 1.817743
v -2.15 6.5 -1.817742
v -0.821771 6.5 -0.694776
v -0.821771 6.5 0.694776
v 2.25 6.5 2.83912
v 2.25 6.5 -2.839119
v 2.9 6.5 -1.817742
v 2.35 6.5 -1.817742
v 2.35 6.5 1.817743
v 2.9 6.5 1.817743
v 2.9 6.1 -3.339119
v -2.9 6.1 -3.339119
v -2.9 6.89 -3.339119
v 2.9 6.89 -3.339119
v -2.9 7 -3.254415
v 2.9 7 -3.254415
v 2.9 6 -3.254415
v -2.9 6 -3.254415
v 2.9 6.89 -3.339119
v 2.9 6.1 -3.339119
v 3 6.1 -3.254415
v 2.9 6.1 -3.339119
v 2.9 6 -3.254415
v 3 6.1 -3.254415
v 2.9 6 -3.254415
v 2.9 6 -3.089119
v 2.9 7 -2.839119
v 2.9 7 -3.254415
v 3 6.9 -3.254415
v 3 6.9 -3.254415
v 2.9 7 -3.254415
v 2.9 6.89 -3.339119
v 3 6.5 -2.839119
v 3 6.9 -2.839119
v 3 6.5 -3.089119
v 3 6.9 -2.839119
v 3 6.5 -2.839119
v -2.9 7 -2.839119
v 2.9 7 -2.839119
v 2.9 6.1 3.33912
v -2.9 6.1 3.33912
v -2.9 6.89 3.33912
v 2.9 6.89 3.33912
v 2.9 7 3.254416
v -2.9 7 3.254416
v -2.9 6 3.254416
v 2.9 6 3.254416
v 2.9 6.89 3.33912
v 2.9 6.1 3.33912
v 2.9 6.1 3.33912
v 3 6.1 3.254416
v 2.9 6 3.254416
v 2.9 6 3.254416
v 3 6.1 3.254416
v 2.9 6 3.08912
v 2.9 7 2.83912
v 3 6.9 3.254416
v 2.9 7 3.254416
v 2.9 7 3.254416
v 3 6.9 3.254416
v 2.9 6.89 3.33912
v 3 6.9 2.83912
v 3 6.5 2.83912
v 3 6.5 3.08912
v 3 6.9 2.83912
v 3 6.5 2.83912
v 2.9 7 2.83912
v -2.9 7 2.83912
v 3 6.9 -3.254415
v 3 6.5 -3.089119
v 3 6.1 -3.254415
v 3 6.1 -3.089119
v 3 6.1 3.254416
v 3 6.5 3.08912
v 3 6.1 3.08912
v 3 6.9 3.254416
v -2.9 6.89 -3.339119
v -2.9 6.1 -3.339119
v -2.9 7 -2.839119
v -3 6.9 -2.839119
v -3 6.9 -3.254415
v -2.9 7 -3.254415
v -3 6.9 -3.254415
v -3 6.9 -2.839119
v -3 6.5 -3.089119
v -3 6.5 -2.839119
v -3 6.1 -3.254415
v -2.9 7 -3.254415
v -3 6.9 -3.254415
v -2.9 6.89 -3.339119
v -2.9 6 -3.254415
v -3 6.1 -3.254415
v -3 6.1 -3.089119
v -2.9 6 -3.089119
v -2.9 6.1 -3.339119
v -3 6.1 -3.254415
v -2.9 6 -3.254415
v -3 6.9 2.83912
v -2.9 7 2.83912
v -2.9 7 3.254416
v -3 6.9 3.254416
v -3 6.5 3.08912
v -3 6.9 2.83912
v -3 6.5 2.83912
v -3 6.9 3.254416
v -2.9 6.89 3.33912
v -2.9 6.1 3.33912
v -3 6.1 3.254416
v -3 6.9 3.254416
v -2.9 7 3.254416
v -2.9 6.89 3.33912
v -3 6.1 3.254416
v -2.9 6.1 3.33912
v -2.9 6 3.254416
v -3 6.1 3.254416
v -2.9 6 3.254416
v -2.9 6 3.08912
v -3 6.1 3.08912
v 2.35 6.5 2.83912
v 2.35 6.5 1.93899
v 2.9 6.5 1.93899
v 2.9 6.5 2.83912
v -2.9 6.5 2.83912
v -2.9 6.5 1.93899
v -2.35 6.5 1.93899
v -2.35 6.5 2.83912

vn 0 0 -1
vn 0 0 -1
vn 0 0 -1
vn 0 0 -1
vn 0 0 1
vn 0 0 1
vn 0 0 1
vn 0 0 1
vn 0 1 0
vn 0 1 0
vn 0 1 0
vn 0 1 0
vn 0 1 0
vn 0 1 0
vn 0 1 0
vn 0 1 0
vn 0 1 0
vn 0 1 0
vn 0 1 0
vn 0 1 0
vn 0 1 0
vn 0 1 0
vn 0 1 0
vn 0 1 0
vn 0 1 0
vn 0 1 0
vn 0 1 0
vn 0 1 0
vn 0 1 0
vn 0 1 0
vn 0 1 0
vn 0 1 0
vn 0 1 0
vn 0 1 0
vn 0 1 0
vn 0 1 0
vn 0 1 0
vn 0 1 0
vn 0 1 0
vn 0 1 0
vn 0 1 0
vn 0 1 0
vn 0 1 0
vn 0 1 0
vn 0 1 0
vn 0 1 0
vn 0 1 0
vn 0 1 0
vn 0 1 0
vn 0 1 0
vn 0 1 0
vn 0 1 0
vn 0 1 0
vn 0 1 0
vn 0 1 0
vn 0 1 0
vn 0 -1 0
vn 0 -1 0
vn 0 1 0
vn 0 1 0
vn 0 0 -1
vn 0 0 -1
vn 0 0 -1
vn 0 0 -1
vn 0 0.6101109 -0.792316
vn 0 0.6101109 -0.792316
vn 0 -0.6463362 -0.7630528
vn 0 -0.6463362 -0.7630528
vn 0 0 1
vn 0.6463362 0 -0.7630528
vn 0.7071068 -0.7071068 0
vn 0.7071068 0.7071068 0
vn 0.6463362 0 -0.7630528
vn 0 0 1
vn 0 -1 0
vn 0 -1 0
vn 0 1 0
vn 0 1 0
vn 0 0 1
vn 0 0 1
vn 0 0 1
vn 0 0 1
vn 0 0.6101109 0.792316
vn 0 0.6101109 0.792316
vn 0 -0.6463362 0.7630528
vn 0 -0.6463362 0.7630528
vn 0 0 -1
vn 0.6463363 0 0.7630528
vn 0.7071068 -0.7071068 0
vn 0.7071068 0.7071068 0
vn 0.6463362 0 0.7630528
vn 0 0 -1
vn -0.6463362 0 -0.7630528
vn -0.6463362 0 -0.7630528
vn -1 0 0
vn -0.7071068 0.7071068 0
vn -1 0 0
vn -1 0 0
vn 0 1 0
vn 0 1 0
vn 0 1 0
vn 0 1 0
vn 0 1 0
vn 0 1 0
vn 0 1 0
vn 0 1 0
vn 1 0 0
vn 1 0 0
vn 1 0 0
vn 1 0 0
vn -1 0 0
vn -1 0 0
vn -1 0 0
vn -1 0 0
vn 0 -1 0
vn 0 -1 0
vn 0 -1 0
vn 0 -1 0
vn 0 1 0
vn 0 1 0
vn 0 1 0
vn 0 1 0
vn 0 1 0
vn 0 1 0
vn 0 1 0
vn 0 1 0
vn 0 1 0
vn 0 1 0
vn 0 1 0
vn 0 1 0
vn 0 1 0
vn 0 1 0
vn 0 1 0
vn 0 1 0
vn 0 1 0
vn 0 1 0
vn 0 1 0
vn 0 1 0
vn 0 1 0
vn 0 1 0
vn 0 1 0
vn 0 1 0
vn 0 1 0
vn 0 1 0
vn 0 1 0
vn 0 1 0
vn 0 1 0
vn 0 1 0
vn 0 1 0
vn 0 1 0
vn 0 1 0
vn 0 1 0
vn 0 -0.6463362 -0.7630528
vn 0 -0.6463362 -0.7630528
vn 0 0.6101109 -0.792316
vn 0 0.6101109 -0.792316
vn 0 1 0
vn 0 1 0
vn 0 -1 0
vn 0 -1 0
vn 0.6463363 0 -0.7630528
vn 0.6463362 0 -0.7630528
vn 0.5428234 -0.5428234 -0.6408474
vn 0.5428234 -0.5428234 -0.6408474
vn 0.5428234 -0.5428234 -0.6408474
vn 0.7071068 -0.7071068 0
vn 0.7071068 -0.7071068 0
vn 0.7071068 -0.7071068 0
vn 0.7071068 0.7071068 0
vn 0.7071068 0.7071068 0
vn 0.7071068 0.7071068 0
vn 0.5208281 0.5208281 -0.6763697
vn 0.5208281 0.5208281 -0.6763697
vn 0.5208281 0.5208281 -0.6763697
vn 1 0 0
vn 1 0 0
vn 1 0 0
vn 0 0 1
vn 0 0 1
vn 0 0 1
vn 0 0 1
vn 0 -0.6463362 0.7630528
vn 0 -0.6463362 0.7630528
vn 0 0.6101109 0.792316
vn 0 0.6101109 0.792316
vn 0 1 0
vn 0 1 0
vn 0 -1 0
vn 0 -1 0
vn 0.6463363 0 0.7630526
vn 0.6463363 0 0.7630528
vn 0.5428234 -0.5428234 0.6408474
vn 0.5428234 -0.5428234 0.6408474
vn 0.5428234 -0.5428234 0.6408474
vn 0.7071068 -0.7071068 0
vn 0.7071068 -0.7071068 0
vn 0.7071068 -0.7071068 0
vn 0.7071068 0.7071068 0
vn 0.7071068 0.7071068 0
vn 0.7071068 0.7071068 0
vn 0.5208282 0.5208282 0.6763697
vn 0.5208282 0.5208282 0.6763697
vn 0.5208282 0.5208282 0.6763697
vn 1 0 0
vn 1 0 0
vn 1 0 0
vn 0 0 -1
vn 0 0 -1
vn 0 0 -1
vn 0 0 -1
vn 1 0 0
vn 1 0 0
vn 1 0 0
vn 1 0 0
vn 1 0 0
vn 1 0 0
vn 1 0 0
vn 1 0 0
vn -0.6463363 0 -0.7630528
vn -0.6463362 0 -0.7630528
vn -0.7071068 0.7071068 0
vn -0.7071068 0.7071068 0
vn -0.7071068 0.7071068 0
vn -0.7071068 0.7071068 0
vn -1 0 0
vn -1 0 0
vn -1 0 0
vn -1 0 0
vn -1 0 0
vn -0.5208282 0.5208282 -0.6763697
vn -0.5208282 0.5208282 -0.6763697
vn -0.5208282 0.5208282 -0.6763697
vn -0.7071068 -0.7071068 0
vn -0.7071068 -0.7071068 0
vn -0.7071068 -0.7071068 0
vn -0.7071068 -0.7071068 0
vn -0.5428234 -0.5428234 -0.6408474
vn -0.5428234 -0.5428234 -0.6408474
vn -0.5428234 -0.5428234 -0.6408474
vn -0.7071068 0.7071068 0
vn -0.7071068 0.7071068 0
vn -0.7071068 0.7071068 0
vn -1 0 0
vn -1 0 0
vn -1 0 0
vn -1 0 0
vn -0.6463362 0 0.7630528
vn -0.6463363 0 0.7630526
vn -0.6463363 0 0.7630528
vn -0.6463363 0 0.7630528
vn -0.5208281 0.5208281 0.6763697
vn -0.5208281 0.5208281 0.6763697
vn -0.5208281 0.5208281 0.6763697
vn -0.5428234 -0.5428234 0.6408474
vn -0.5428234 -0.5428234 0.6408474
vn -0.5428234 -0.5428234 0.6408474
vn -0.7071068 -0.7071068 0
vn -0.7071068 -0.7071068 0
vn -0.7071068 -0.7071068 0
vn -0.7071068 -0.7071068 0
vn 0 1 0
vn 0 1 0
vn 0 1 0
vn 0 1 0
vn 0 1 0
vn 0 1 0
vn 0 1 0
vn 0 1 0

vt 0.74391 0.955464
vt 0.7535 0.955464
vt 0.74391 0.955464
vt 0.7535 0.955464
vt 0.74391 0.939872
vt 0.7535 0.939872
vt 0.74391 0.939872
vt 0.7535 0.939872
vt 0.144584 0.932611
vt 0.165522 0.932611
vt 0.165522 0.961357
vt 0.144584 0.961357
vt 0.137605 0.961357
vt 0.137605 0.932611
vt 0.13807 0.961357
vt 0.13807 0.932611
vt 0.144119 0.932611
vt 0.144119 0.961357
vt 0.145049 0.932611
vt 0.145049 0.961357
vt 0.165057 0.932611
vt 0.165057 0.961357
vt 0.442244 0.938828
vt 0.463365 0.938828
vt 0.463365 0.957876
vt 0.442244 0.957876
vt 0.364961 0.963289
vt 0.351869 0.963289
vt 0.351869 0.926674
vt 0.364961 0.926674
vt 0.146258 0.940455
vt 0.163321 0.940455
vt 0.163321 0.954881
vt 0.146258 0.954881
vt 0.140306 0.939974
vt 0.145465 0.939974
vt 0.145465 0.955362
vt 0.140306 0.955362
vt 0.046778 0.948649
vt 0.070001 0.948649
vt 0.070001 0.968283
vt 0.046778 0.968283
vt 0.364961 0.963289
vt 0.351869 0.963289
vt 0.351869 0.926674
vt 0.364961 0.926674
vt 0.13807 0.961357
vt 0.13807 0.932611
vt 0.144584 0.932611
vt 0.144584 0.961357
vt 0.144119 0.961357
vt 0.144119 0.932611
vt 0.145465 0.955362
vt 0.140306 0.955362
vt 0.140306 0.939974
vt 0.145465 0.939974
vt 0.838701 0.948665
vt 0.858549 0.948665
vt 0.838701 0.949819
vt 0.858549 0.949819
vt 0.838701 0.947511
vt 0.858549 0.947511
vt 0.838701 0.947511
vt 0.858549 0.947511
vt 0.858549 0.947902
vt 0.838701 0.947902
vt 0.838701 0.947902
vt 0.858549 0.947902
vt 0.838239 0.949819
vt 0.85901 0.947902
vt 0.85901 0.948665
vt 0.85901 0.949819
vt 0.85901 0.947902
vt 0.838239 0.949819
vt 0.838701 0.948665
vt 0.858549 0.948665
vt 0.838701 0.949819
vt 0.858549 0.949819
vt 0.838701 0.947511
vt 0.858549 0.947511
vt 0.838701 0.947511
vt 0.858549 0.947511
vt 0.858549 0.947902
vt 0.838701 0.947902
vt 0.838701 0.947902
vt 0.858549 0.947902
vt 0.838239 0.949819
vt 0.85901 0.947902
vt 0.85901 0.948665
vt 0.85901 0.949819
vt 0.85901 0.947902
vt 0.838239 0.949819
vt 0.85901 0.949819
vt 0.85901 0.949819
vt 0.85901 0.949819
vt 0.85901 0.949819
vt 0.85901 0.949819
vt 0.85901 0.949819
vt 0.226477 0.934407
vt 0.247598 0.934407
vt 0.247598 0.938828
vt 0.226477 0.938828
vt 0.226477 0.934407
vt 0.247598 0.934407
vt 0.247598 0.938828
vt 0.226477 0.938828
vt 0.7535 0.939872
vt 0.7535 0.955464
vt 0.7535 0.955464
vt 0.7535 0.939872
vt 0.7535 0.955464
vt 0.7535 0.955464
vt 0.7535 0.955464
vt 0.7535 0.955464
vt 0.7535 0.955464
vt 0.7535 0.955464
vt 0.7535 0.955464
vt 0.7535 0.955464
vt 0.442244 0.934407
vt 0.463365 0.934407
vt 0.463365 0.962298
vt 0.442244 0.962298
vt 0.146258 0.939974
vt 0.163321 0.939974
vt 0.163321 0.955362
vt 0.146258 0.955362
vt 0.140306 0.940455
vt 0.145465 0.940455
vt 0.145465 0.954881
vt 0.140306 0.954881
vt 0.232909 0.934981
vt 0.24268 0.943242
vt 0.25477 0.943242
vt 0.26454 0.934981
vt 0.26454 0.961724
vt 0.25477 0.953463
vt 0.24268 0.953463
vt 0.232909 0.961724
vt 0.551931 0.943126
vt 0.551931 0.953579
vt 0.561923 0.962027
vt 0.561923 0.934678
vt 0.529575 0.934678
vt 0.529575 0.962027
vt 0.539567 0.953579
vt 0.539567 0.943126
vt 0.137605 0.932611
vt 0.137605 0.961357
vt 0.145465 0.954881
vt 0.140306 0.954881
vt 0.140306 0.940455
vt 0.145465 0.940455
vt 0.858549 0.947511
vt 0.838701 0.947511
vt 0.838701 0.947511
vt 0.858549 0.947511
vt 0.838701 0.947902
vt 0.858549 0.947902
vt 0.858549 0.947902
vt 0.838701 0.947902
vt 0.858549 0.947511
vt 0.858549 0.947511
vt 0.85901 0.947902
vt 0.858549 0.947511
vt 0.858549 0.947902
vt 0.85901 0.947902
vt 0.858549 0.947902
vt 0.858549 0.948665
vt 0.858549 0.949819
vt 0.858549 0.947902
vt 0.85901 0.947902
vt 0.85901 0.947902
vt 0.858549 0.947902
vt 0.858549 0.947511
vt 0.85901 0.949819
vt 0.85901 0.949819
vt 0.85901 0.948665
vt 0.85901 0.949819
vt 0.85901 0.949819
vt 0.838701 0.949819
vt 0.858549 0.949819
vt 0.858549 0.947511
vt 0.838701 0.947511
vt 0.838701 0.947511
vt 0.858549 0.947511
vt 0.858549 0.947902
vt 0.838701 0.947902
vt 0.838701 0.947902
vt 0.858549 0.947902
vt 0.858549 0.947511
vt 0.858549 0.947511
vt 0.858549 0.947511
vt 0.85901 0.947902
vt 0.858549 0.947902
vt 0.858549 0.947902
vt 0.85901 0.947902
vt 0.858549 0.948665
vt 0.858549 0.949819
vt 0.85901 0.947902
vt 0.858549 0.947902
vt 0.858549 0.947902
vt 0.85901 0.947902
vt 0.858549 0.947511
vt 0.85901 0.949819
vt 0.85901 0.949819
vt 0.85901 0.948665
vt 0.85901 0.949819
vt 0.85901 0.949819
vt 0.858549 0.949819
vt 0.838701 0.949819
vt 0.85901 0.949819
vt 0.85901 0.949819
vt 0.85901 0.949819
vt 0.85901 0.949819
vt 0.85901 0.949819
vt 0.85901 0.949819
vt 0.85901 0.949819
vt 0.85901 0.949819
vt 0.85901 0.949819
vt 0.85901 0.949819
vt 0.85901 0.949819
vt 0.85901 0.949819
vt 0.85901 0.949819
vt 0.85901 0.949819
vt 0.85901 0.949819
vt 0.85901 0.949819
vt 0.85901 0.949819
vt 0.85901 0.949819
vt 0.85901 0.949819
vt 0.85901 0.949819
vt 0.85901 0.949819
vt 0.85901 0.949819
vt 0.85901 0.949819
vt 0.85901 0.949819
vt 0.85901 0.949819
vt 0.85901 0.949819
vt 0.85901 0.949819
vt 0.85901 0.949819
vt 0.85901 0.949819
vt 0.85901 0.949819
vt 0.85901 0.949819
vt 0.85901 0.949819
vt 0.85901 0.949819
vt 0.85901 0.949819
vt 0.85901 0.949819
vt 0.85901 0.949819
vt 0.85901 0.949819
vt 0.85901 0.949819
vt 0.85901 0.949819
vt 0.85901 0.949819
vt 0.85901 0.949819
vt 0.85901 0.949819
vt 0.85901 0.949819
vt 0.85901 0.949819
vt 0.85901 0.949819
vt 0.85901 0.949819
vt 0.85901 0.949819
vt 0.85901 0.949819
vt 0.85901 0.949819
vt 0.85901 0.949819
vt 0.226477 0.934407
vt 0.226477 0.938828
vt 0.247598 0.938828
vt 0.247598 0.934407
vt 0.226477 0.934407
vt 0.226477 0.938828
vt 0.247598 0.938828
vt 0.247598 0.934407

usemtl Palette
usemap Palette
f 3/3/3 4/4/4 1/1/1
f 1/1/1 4/4/4 2/2/2
f 5/5/5 6/6/6 7/7/7
f 7/7/7 6/6/6 8/8/8
f 108/108/108 107/107/107 109/109/109
f 109/109/109 107/107/107 110/110/110
f 112/112/112 111/111/111 113/113/113
f 113/113/113 111/111/111 114/114/114
f 116/116/116 115/115/115 117/117/117
f 117/117/117 115/115/115 118/118/118
f 12/12/12 9/9/9 20/20/20
f 20/20/20 9/9/9 19/19/19
f 18/18/18 9/9/9 12/12/12
f 17/17/17 9/9/9 18/18/18
f 16/16/16 15/15/15 14/14/14
f 14/14/14 15/15/15 13/13/13
f 22/22/22 21/21/21 11/11/11
f 11/11/11 21/21/21 10/10/10
f 42/42/42 39/39/39 41/41/41
f 41/41/41 39/39/39 40/40/40
f 30/30/30 27/27/27 29/29/29
f 29/29/29 27/27/27 28/28/28
f 23/23/23 119/119/119 24/24/24
f 24/24/24 119/119/119 120/120/120
f 25/25/25 121/121/121 26/26/26
f 26/26/26 121/121/121 122/122/122
f 31/31/31 123/123/123 32/32/32
f 32/32/32 123/123/123 124/124/124
f 33/33/33 125/125/125 34/34/34
f 34/34/34 125/125/125 126/126/126
f 127/127/127 35/35/35 128/128/128
f 128/128/128 35/35/35 36/36/36
f 129/129/129 37/37/37 130/130/130
f 130/130/130 37/37/37 38/38/38
f 132/132/132 131/131/131 133/133/133
f 133/133/133 131/131/131 134/134/134
f 136/136/136 135/135/135 137/137/137
f 137/137/137 135/135/135 138/138/138
f 140/140/140 139/139/139 141/141/141
f 141/141/141 139/139/139 142/142/142
f 144/144/144 143/143/143 145/145/145
f 145/145/145 143/143/143 146/146/146
f 46/46/46 43/43/43 45/45/45
f 45/45/45 43/43/43 44/44/44
f 48/48/48 47/47/47 147/147/147
f 147/147/147 47/47/47 148/148/148
f 52/52/52 49/49/49 51/51/51
f 51/51/51 49/49/49 50/50/50
f 149/149/149 53/53/53 150/150/150
f 150/150/150 53/53/53 54/54/54
f 151/151/151 55/55/55 152/152/152
f 152/152/152 55/55/55 56/56/56
f 62/62/62 61/61/61 64/64/64
f 64/64/64 61/61/61 63/63/63
f 153/153/153 68/68/68 154/154/154
f 154/154/154 68/68/68 67/67/67
f 155/155/155 66/66/66 156/156/156
f 156/156/156 66/66/66 65/65/65
f 158/158/158 157/157/157 60/60/60
f 60/60/60 157/157/157 59/59/59
f 160/160/160 159/159/159 57/57/57
f 57/57/57 159/159/159 58/58/58
f 161/161/161 73/73/73 162/162/162
f 162/162/162 73/73/73 70/70/70
f 164/164/164 163/163/163 165/165/165
f 167/167/167 166/166/166 168/168/168
f 168/168/168 166/166/166 71/71/71
f 169/169/169 72/72/72 170/170/170
f 170/170/170 72/72/72 171/171/171
f 173/173/173 172/172/172 174/174/174
f 176/176/176 175/175/175 177/177/177
f 212/212/212 211/211/211 176/176/176
f 212/212/212 213/213/213 211/211/211
f 213/213/213 212/212/212 214/214/214
f 178/178/178 69/69/69 179/179/179
f 179/179/179 69/69/69 74/74/74
f 69/69/69 178/178/178 180/180/180
f 180/180/180 178/178/178 181/181/181
f 79/79/79 80/80/80 81/81/81
f 81/81/81 80/80/80 82/82/82
f 86/86/86 182/182/182 85/85/85
f 85/85/85 182/182/182 183/183/183
f 84/84/84 184/184/184 83/83/83
f 83/83/83 184/184/184 185/185/185
f 187/187/187 186/186/186 77/77/77
f 77/77/77 186/186/186 78/78/78
f 189/189/189 188/188/188 76/76/76
f 76/76/76 188/188/188 75/75/75
f 91/91/91 190/190/190 88/88/88
f 88/88/88 190/190/190 191/191/191
f 193/193/193 192/192/192 194/194/194
f 196/196/196 195/195/195 89/89/89
f 89/89/89 195/195/195 197/197/197
f 90/90/90 198/198/198 199/199/199
f 199/199/199 198/198/198 200/200/200
f 202/202/202 201/201/201 203/203/203
f 205/205/205 204/204/204 206/206/206
f 204/204/204 218/218/218 216/216/216
f 215/215/215 216/216/216 218/218/218
f 216/216/216 215/215/215 217/217/217
f 87/87/87 207/207/207 92/92/92
f 92/92/92 207/207/207 208/208/208
f 207/207/207 87/87/87 209/209/209
f 209/209/209 87/87/87 210/210/210
f 94/94/94 219/219/219 93/93/93
f 93/93/93 219/219/219 220/220/220
f 222/222/222 221/221/221 223/223/223
f 223/223/223 221/221/221 224/224/224
f 226/226/226 225/225/225 227/227/227
f 228/228/228 226/226/226 227/227/227
f 229/229/229 227/227/227 225/225/225
f 227/227/227 229/229/229 95/95/95
f 231/231/231 230/230/230 232/232/232
f 234/234/234 233/233/233 235/235/235
f 235/235/235 233/233/233 236/236/236
f 238/238/238 237/237/237 239/239/239
f 241/241/241 240/240/240 242/242/242
f 242/242/242 240/240/240 96/96/96
f 244/244/244 243/243/243 245/245/245
f 245/245/245 246/246/246 244/244/244
f 244/244/244 97/97/97 243/243/243
f 97/97/97 244/244/244 98/98/98
f 248/248/248 247/247/247 249/249/249
f 249/249/249 247/247/247 250/250/250
f 252/252/252 251/251/251 253/253/253
f 255/255/255 254/254/254 256/256/256
f 258/258/258 257/257/257 259/259/259
f 259/259/259 257/257/257 260/260/260
f 102/102/102 99/99/99 101/101/101
f 101/101/101 99/99/99 100/100/100
f 106/106/106 103/103/103 105/105/105
f 105/105/105 103/103/103 104/104/104
f 262/262/262 261/261/261 263/263/263
f 263/263/263 261/261/261 264/264/264
f 266/266/266 265/265/265 267/267/267
f 267/267/267 265/265/265 268/268/268
