# Blender v2.79 (sub 0) OBJ File: 'Candle.blend'
# www.blender.org
o Cube_Cube.001
v -0.007498 -0.075000 0.007498
v -0.007498 0.065893 0.007498
v -0.007498 -0.075000 -0.007498
v -0.007498 0.065893 -0.007498
v 0.007498 -0.075000 0.007498
v 0.007498 0.065893 0.007498
v 0.007498 -0.075000 -0.007498
v 0.007498 0.065893 -0.007498
v -0.004373 0.069536 0.004373
v -0.004373 0.069536 -0.004373
v 0.004373 0.069536 -0.004373
v 0.004373 0.069536 0.004373
v -0.000716 0.066598 0.000716
v -0.000716 0.072790 0.000881
v -0.000716 0.066598 -0.000716
v -0.000716 0.072790 -0.000551
v 0.000716 0.066598 0.000716
v 0.000716 0.072790 0.000881
v 0.000716 0.066598 -0.000716
v 0.000716 0.072790 -0.000551
v -0.002409 0.074740 0.002379
v -0.002409 0.073982 -0.002379
v 0.002409 0.073982 -0.002379
v 0.002409 0.074740 0.002379
v -0.001831 0.079443 0.000958
v -0.001831 0.078866 -0.002659
v 0.001831 0.078866 -0.002659
v 0.001831 0.079443 0.000958
v -0.000539 0.082017 -0.001176
v -0.000539 0.081754 -0.002222
v 0.000539 0.081754 -0.002222
v 0.000539 0.082017 -0.001176
vt 0.290597 0.982810
vt 0.156982 0.982810
vt 0.156982 0.778068
vt 0.290597 0.778068
vt 0.424212 0.982810
vt 0.290597 0.982810
vt 0.290597 0.778069
vt 0.424212 0.778069
vt 0.290597 0.778068
vt 0.156982 0.778069
vt 0.156982 0.573327
vt 0.290597 0.573327
vt 0.424212 0.573327
vt 0.424212 0.778068
vt 0.290597 0.778069
vt 0.156982 0.982810
vt 0.014729 0.982810
vt 0.014729 0.778068
vt 0.156981 0.778068
vt 0.014729 0.573327
vt 0.156981 0.573327
vt 0.127336 0.615996
vt 0.044375 0.615996
vt 0.127336 0.735400
vt 0.044375 0.735400
vt 0.014729 0.778068
vt 0.228932 0.039201
vt 0.320861 0.016307
vt 0.320861 0.214549
vt 0.228932 0.237443
vt 0.016307 0.214549
vt 0.111460 0.214549
vt 0.111460 0.412791
vt 0.016307 0.412791
vt 0.412791 0.237443
vt 0.320861 0.214549
vt 0.320861 0.016307
vt 0.412791 0.039201
vt 0.111460 0.214549
vt 0.206613 0.214549
vt 0.206613 0.412791
vt 0.111460 0.412791
vt 0.016307 0.016307
vt 0.228931 0.016307
vt 0.228932 0.214549
vt 0.826100 0.285564
vt 0.893784 0.285564
vt 0.973806 0.450026
vt 0.746078 0.450026
vt 0.518350 0.476728
vt 0.518350 0.049784
vt 0.545648 0.021272
vt 0.545648 0.345861
vt 0.826100 0.156570
vt 0.746078 0.021272
vt 0.893784 0.156570
vt 0.973806 0.021272
vt 0.718781 0.345861
vt 0.606732 0.152328
vt 0.657697 0.152328
vt 0.746078 0.049784
vt 0.746078 0.476728
vt 0.718781 0.021272
vt 0.946509 0.474277
vt 0.773376 0.474277
vt 0.606732 0.058564
vt 0.657697 0.058564
vn -1.0000 0.0000 0.0000
vn 0.0000 0.0000 -1.0000
vn 1.0000 0.0000 0.0000
vn 0.0000 0.0000 1.0000
vn 0.0000 -1.0000 0.0000
vn 0.7590 0.6511 0.0000
vn 0.0000 1.0000 0.0000
vn -0.7590 0.6511 0.0000
vn 0.0000 0.6511 0.7590
vn 0.0000 0.6511 -0.7590
vn 0.0000 0.0267 -0.9996
vn 0.0000 -0.0267 0.9996
vn 0.0000 -0.8377 -0.5461
vn 0.9930 0.1163 -0.0185
vn 0.6822 -0.7258 0.0889
vn -0.6822 -0.7258 0.0889
vn 0.0000 -0.6091 0.7931
vn 0.0000 0.6383 0.7698
vn -0.9930 0.1163 -0.0185
vn 0.0000 0.2892 0.9573
vn 0.0000 -0.0572 -0.9984
vn 0.0000 0.9698 -0.2440
vn 0.0000 0.1497 -0.9887
vn 0.9101 0.4078 -0.0734
vn -0.9101 0.4078 -0.0734
s off
f 1/1/1 2/2/1 4/3/1 3/4/1
f 3/5/2 4/6/2 8/7/2 7/8/2
f 7/9/3 8/10/3 6/11/3 5/12/3
f 5/12/4 6/13/4 2/14/4 1/15/4
f 3/16/5 7/17/5 5/18/5 1/19/5
f 6/20/6 8/21/6 11/22/6 12/23/6
f 11/22/7 10/24/7 9/25/7 12/23/7
f 4/3/8 2/26/8 9/25/8 10/24/8
f 2/26/9 6/20/9 12/23/9 9/25/9
f 8/21/10 4/3/10 10/24/10 11/22/10
f 13/27/1 14/28/1 16/29/1 15/30/1
f 15/31/11 16/32/11 20/33/11 19/34/11
f 19/35/3 20/36/3 18/37/3 17/38/3
f 17/39/12 18/40/12 14/41/12 13/42/12
f 15/31/5 19/43/5 17/44/5 13/45/5
f 20/46/13 16/47/13 22/48/13 23/49/13
f 24/50/14 23/51/14 27/52/14 28/53/14
f 18/54/15 20/46/15 23/49/15 24/55/15
f 16/47/16 14/56/16 21/57/16 22/48/16
f 14/56/17 18/54/17 24/55/17 21/57/17
f 25/58/18 28/53/18 32/59/18 29/60/18
f 22/61/19 21/62/19 25/58/19 26/63/19
f 21/62/20 24/50/20 28/53/20 25/58/20
f 23/49/21 22/48/21 26/64/21 27/65/21
f 31/66/22 30/67/22 29/60/22 32/59/22
f 27/52/23 26/63/23 30/67/23 31/66/23
f 28/53/24 27/52/24 31/66/24 32/59/24
f 26/63/25 25/58/25 29/60/25 30/67/25
